<?xml version="1.0" encoding="UTF-8"?>
<svg xmlns="http://www.w3.org/2000/svg" xmlns:xlink="http://www.w3.org/1999/xlink" width="24px" height="24px" viewBox="0 0 24 24" version="1.1">
    <!-- Generator: Sketch 51.3 (57544) - http://www.bohemiancoding.com/sketch -->
    <title>002 - 404 Page</title>
    <desc>Created with Sketch.</desc>
    <defs/>
    <g id="Page-1" stroke="none" stroke-width="1" fill="none" fill-rule="evenodd">
        <g id="002---404-Page" transform="translate(0.000000, 1.000000)">
            <g id="Colour" transform="translate(1.000000, 0.000000)" fill-rule="nonzero">
                <path d="M0,1 L0,8 L22,8 L22,1 C22,0.44771525 21.5522847,0 21,0 L1,0 C0.44771525,0 0,0.44771525 0,1 Z" id="Shape" fill="#D7DBDD"/>
                <path d="M0,8 L0,21 C0,21.5522847 0.44771525,22 1,22 L21,22 C21.5522847,22 22,21.5522847 22,21 L22,8 L0,8 Z" id="Shape" fill="#F4F4F4"/>
                <path d="M6,17 L3,17 C2.44771525,17 2,16.5522847 2,16 L2,12.3335 C2,11.7812153 2.44771525,11.3335 3,11.3335 C3.55228475,11.3335 4,11.7812153 4,12.3335 L4,15 L6,15 C6.55228475,15 7,15.4477153 7,16 C7,16.5522847 6.55228475,17 6,17 Z" id="Shape" fill="#3F454B"/>
                <path d="M5,19 C4.44771525,19 4,18.5522847 4,18 L4,15 C4,14.4477153 4.44771525,14 5,14 C5.55228475,14 6,14.4477153 6,15 L6,18 C6,18.5522847 5.55228475,19 5,19 Z" id="Shape" fill="#3F454B"/>
                <path d="M19,17 L16,17 C15.4477153,17 15,16.5522847 15,16 L15,12.3335 C15,11.7812153 15.4477153,11.3335 16,11.3335 C16.5522847,11.3335 17,11.7812153 17,12.3335 L17,15 L19,15 C19.5522847,15 20,15.4477153 20,16 C20,16.5522847 19.5522847,17 19,17 Z" id="Shape" fill="#3F454B"/>
                <path d="M18,19 C17.4477153,19 17,18.5522847 17,18 L17,15 C17,14.4477153 17.4477153,14 18,14 C18.5522847,14 19,14.4477153 19,15 L19,18 C19,18.5522847 18.5522847,19 18,19 Z" id="Shape" fill="#3F454B"/>
                <path d="M11,19 C9.34389967,18.9981813 8.00181871,17.6561003 8,16 L8,14 C8,12.3431458 9.34314575,11 11,11 C12.6568542,11 14,12.3431458 14,14 L14,16 C13.9981813,17.6561003 12.6561003,18.9981813 11,19 Z M11,13 C10.4480122,13.0007162 10.0007162,13.4480122 10,14 L10,16 C10,16.5522847 10.4477153,17 11,17 C11.5522847,17 12,16.5522847 12,16 L12,14 C11.9992838,13.4480122 11.5519878,13.0007162 11,13 Z" id="Shape" fill="#3F454B"/>
                <path d="M11,5 L4,5 C3.44771525,5 3,4.55228475 3,4 C3,3.44771525 3.44771525,3 4,3 L11,3 C11.5522847,3 12,3.44771525 12,4 C12,4.55228475 11.5522847,5 11,5 Z" id="Shape" fill="#31D3AC"/>
                <circle id="Oval" fill="#F4608A" cx="18" cy="4" r="1"/>
            </g>
            <g id="Outline">
                <path d="M1,1 L1,8 L23,8 L23,1 C23,0.44771525 22.5522847,0 22,0 L2,0 C1.44771525,0 1,0.44771525 1,1 Z" id="Shape" stroke="#40464C" stroke-width="2" stroke-linecap="round" stroke-linejoin="round"/>
                <path d="M1,21 C1,21.5522847 1.44771525,22 2,22 L22,22 C22.5522847,22 23,21.5522847 23,21 L23,8 L1,8" id="Shape" stroke="#40464C" stroke-width="2" stroke-linecap="round" stroke-linejoin="round"/>
                <path d="M2,8 L2,11 C2,11.5522847 1.55228475,12 1,12 C0.44771525,12 6.76353751e-17,11.5522847 0,11 L0,8" id="Shape" fill="#40464C" fill-rule="nonzero"/>
                <path d="M0,21 L0,17 C-6.76353751e-17,16.4477153 0.44771525,16 1,16 C1.55228475,16 2,16.4477153 2,17 L2,21" id="Shape" fill="#40464C" fill-rule="nonzero"/>
            </g>
        </g>
    </g>
</svg>
