<?xml version="1.0" encoding="UTF-8"?>
<svg width="60px" height="60px" viewBox="0 0 60 60" version="1.1" xmlns="http://www.w3.org/2000/svg" xmlns:xlink="http://www.w3.org/1999/xlink">
    <!-- Generator: Sketch 51.3 (57544) - http://www.bohemiancoding.com/sketch -->
    <title>092 - Responsive Website Code</title>
    <desc>Created with Sketch.</desc>
    <defs>
        <linearGradient x1="8.64390244%" y1="-12.6571429%" x2="87.9121951%" y2="103.414286%" id="linearGradient-1">
            <stop stop-color="#D3DFF2" offset="0%"></stop>
            <stop stop-color="#D3DFF2" offset="17.2%"></stop>
            <stop stop-color="#D3DFF2" offset="20%"></stop>
            <stop stop-color="#DAE2F2" offset="20%"></stop>
            <stop stop-color="#EBEAF2" offset="20.1%"></stop>
            <stop stop-color="#F6EFF2" offset="20.1%"></stop>
            <stop stop-color="#FDF2F2" offset="20.2%"></stop>
            <stop stop-color="#FFF3F2" offset="20.5%"></stop>
            <stop stop-color="#FFF3F2" offset="25.2%"></stop>
            <stop stop-color="#FFF3F2" offset="26%"></stop>
            <stop stop-color="#D3DFF2" offset="26%"></stop>
            <stop stop-color="#D3DFF2" offset="39.7%"></stop>
            <stop stop-color="#D3DFF2" offset="42%"></stop>
            <stop stop-color="#DAE2F2" offset="42%"></stop>
            <stop stop-color="#EBEAF2" offset="42.1%"></stop>
            <stop stop-color="#F6EFF2" offset="42.1%"></stop>
            <stop stop-color="#FDF2F2" offset="42.2%"></stop>
            <stop stop-color="#FFF3F2" offset="42.5%"></stop>
            <stop stop-color="#FFF3F2" offset="48.9%"></stop>
            <stop stop-color="#FFF3F2" offset="50%"></stop>
            <stop stop-color="#F8F0F2" offset="50%"></stop>
            <stop stop-color="#E7E8F2" offset="50%"></stop>
            <stop stop-color="#DCE3F2" offset="50%"></stop>
            <stop stop-color="#D5E0F2" offset="50%"></stop>
            <stop stop-color="#D3DFF2" offset="50.1%"></stop>
            <stop stop-color="#D3DFF2" offset="70.6%"></stop>
            <stop stop-color="#D3DFF2" offset="74%"></stop>
            <stop stop-color="#FFF3F2" offset="74.1%"></stop>
            <stop stop-color="#FFF3F2" offset="83.5%"></stop>
            <stop stop-color="#FFF3F2" offset="85%"></stop>
            <stop stop-color="#D3DFF2" offset="85.1%"></stop>
        </linearGradient>
        <linearGradient x1="-11.5058824%" y1="12.0423077%" x2="111.505882%" y2="92.4769231%" id="linearGradient-2">
            <stop stop-color="#D3DFF2" offset="0%"></stop>
            <stop stop-color="#D3DFF2" offset="17.2%"></stop>
            <stop stop-color="#D3DFF2" offset="20%"></stop>
            <stop stop-color="#DAE2F2" offset="20%"></stop>
            <stop stop-color="#EBEAF2" offset="20.1%"></stop>
            <stop stop-color="#F6EFF2" offset="20.1%"></stop>
            <stop stop-color="#FDF2F2" offset="20.2%"></stop>
            <stop stop-color="#FFF3F2" offset="20.5%"></stop>
            <stop stop-color="#FFF3F2" offset="25.2%"></stop>
            <stop stop-color="#FFF3F2" offset="26%"></stop>
            <stop stop-color="#D3DFF2" offset="26%"></stop>
            <stop stop-color="#D3DFF2" offset="39.7%"></stop>
            <stop stop-color="#D3DFF2" offset="42%"></stop>
            <stop stop-color="#DAE2F2" offset="42%"></stop>
            <stop stop-color="#EBEAF2" offset="42.1%"></stop>
            <stop stop-color="#F6EFF2" offset="42.1%"></stop>
            <stop stop-color="#FDF2F2" offset="42.2%"></stop>
            <stop stop-color="#FFF3F2" offset="42.5%"></stop>
            <stop stop-color="#FFF3F2" offset="48.9%"></stop>
            <stop stop-color="#FFF3F2" offset="50%"></stop>
            <stop stop-color="#F8F0F2" offset="50%"></stop>
            <stop stop-color="#E7E8F2" offset="50%"></stop>
            <stop stop-color="#DCE3F2" offset="50%"></stop>
            <stop stop-color="#D5E0F2" offset="50%"></stop>
            <stop stop-color="#D3DFF2" offset="50.1%"></stop>
            <stop stop-color="#D3DFF2" offset="70.6%"></stop>
            <stop stop-color="#D3DFF2" offset="74%"></stop>
            <stop stop-color="#FFF3F2" offset="74.1%"></stop>
            <stop stop-color="#FFF3F2" offset="83.5%"></stop>
            <stop stop-color="#FFF3F2" offset="85%"></stop>
            <stop stop-color="#D3DFF2" offset="85.1%"></stop>
        </linearGradient>
    </defs>
    <g id="Page-1" stroke="none" stroke-width="1" fill="none" fill-rule="evenodd">
        <g id="092---Responsive-Website-Code" transform="translate(0.000000, 1.000000)">
            <path d="M59,50 L59,56 C58.9967052,57.1032019 58.1032019,57.9967052 57,58 L41,58 C39.8967981,57.9967052 39.0032948,57.1032019 39,56 L39,50 L59,50 Z" id="Shape" fill="#7FABFA" fill-rule="nonzero"></path>
            <path d="M56,50 L56,56 C55.9967052,57.1032019 55.1032019,57.9967052 54,58 L41,58 C39.8967981,57.9967052 39.0032948,57.1032019 39,56 L39,50 L56,50 Z" id="Shape" fill="#A4C2F7" fill-rule="nonzero"></path>
            <circle id="Oval" fill="#A4C2F7" fill-rule="nonzero" cx="49" cy="55" r="2"></circle>
            <path d="M30,46 C28,43 28,40 28,36 L23,33 L18,36 C18,40 18,43 16,46 L23,48 L30,46 Z" id="Shape" fill="#7FABFA" fill-rule="nonzero"></path>
            <path d="M45,2 L45,10 L1,10 L1,2 C1.0032948,0.896798134 1.89679813,0.00329480111 3,0 L43,0 C44.1032019,0.00329480111 44.9967052,0.896798134 45,2 Z" id="Shape" fill="#A4C2F7" fill-rule="nonzero"></path>
            <path d="M42,2 L42,10 L1,10 L1,2 C1.0032948,0.896798134 1.89679813,0.00329480111 3,0 L40,0 C41.1032019,0.00329480111 41.9967052,0.896798134 42,2 Z" id="Shape" fill="#E3E7F2" fill-rule="nonzero"></path>
            <path d="M45,8 L45,26 L43,28 C41.8967981,28.0032948 41.0032948,28.8967981 41,30 L39,36 L3,36 C2.07049677,35.9943771 1.26519665,35.3542667 1.05,34.45 C1.01745262,34.3021926 1.00069199,34.1513469 1,34 L1,8 L45,8 Z" id="Shape" fill="#D4E1F4" fill-rule="nonzero"></path>
            <path d="M42,8 L42,26 L40,28 C38.8967981,28.0032948 38.0032948,28.8967981 38,30 L38,36 L3,36 C2.07049677,35.9943771 1.26519665,35.3542667 1.05,34.45 C1.01745262,34.3021926 1.00069199,34.1513469 1,34 L1,8 L42,8 Z" id="Shape" fill="url(#linearGradient-1)" fill-rule="nonzero"></path>
            <path d="M33,48 C32.9918328,49.1011688 32.1011688,49.9918328 31,50 L15,50 C13.8967981,49.9967052 13.0032948,49.1032019 13,48 C13.0081672,46.8988312 13.8988312,46.0081672 15,46 L31,46 C32.1032019,46.0032948 32.9967052,46.8967981 33,48 Z" id="Shape" fill="#7FABFA" fill-rule="nonzero"></path>
            <path d="M30,48 C29.9918328,49.1011688 29.1011688,49.9918328 28,50 L15,50 C13.8967981,49.9967052 13.0032948,49.1032019 13,48 C13.0081672,46.8988312 13.8988312,46.0081672 15,46 L28,46 C29.1032019,46.0032948 29.9967052,46.8967981 30,48 Z" id="Shape" fill="#A4C2F7" fill-rule="nonzero"></path>
            <path d="M59,28 L59,52 L39,52 L39,28 C39.0032948,26.8967981 39.8967981,26.0032948 41,26 L57,26 C58.1045695,26 59,26.8954305 59,28 Z" id="Shape" fill="#A4C2F7" fill-rule="nonzero"></path>
            <path d="M56,28 L56,52 L39,52 L39,28 C39.0032948,26.8967981 39.8967981,26.0032948 41,26 L54,26 C55.1045695,26 56,26.8954305 56,28 Z" id="Shape" fill="url(#linearGradient-2)" fill-rule="nonzero"></path>
            <path d="M4.05,34.45 C4.01745262,34.3021926 4.00069199,34.1513469 4,34 L4,2 C4.0032948,0.896798134 4.89679813,0.00329480111 6,0 L3,0 C1.89679813,0.00329480111 1.0032948,0.896798134 1,2 L1,34 C1.00069199,34.1513469 1.01745262,34.3021926 1.05,34.45 C1.26519665,35.3542667 2.07049677,35.9943771 3,36 L6,36 C5.07049677,35.9943771 4.26519665,35.3542667 4.05,34.45 Z" id="Shape" fill="#FFFFFF" fill-rule="nonzero"></path>
            <rect id="Rectangle-path" stroke="#428DFF" stroke-width="2" stroke-linecap="round" stroke-linejoin="round" x="39" y="26" width="20" height="32" rx="2"></rect>
            <path d="M39,52 L59,52" id="Shape" stroke="#428DFF" stroke-width="2" stroke-linecap="round" stroke-linejoin="round"></path>
            <circle id="Oval" stroke="#428DFF" stroke-width="2" stroke-linecap="round" stroke-linejoin="round" cx="49" cy="55" r="3"></circle>
            <path d="M49,26 L49,28" id="Shape" stroke="#428DFF" stroke-width="2" stroke-linecap="round" stroke-linejoin="round"></path>
            <polygon id="Shape" fill="#FFFFFF" fill-rule="nonzero" points="0 34 0 21 0 2 2 2 2 21 2 34"></polygon>
            <path d="M1,29 C0.44771525,29 6.76353751e-17,29.4477153 0,30 L0,34 L2,34 L2,30 C2,29.4477153 1.55228475,29 1,29 Z" id="Shape" fill="#428DFF" fill-rule="nonzero"></path>
            <path d="M2,2 L0,2 L0,22 C6.76353751e-17,22.5522847 0.44771525,23 1,23 C1.55228475,23 2,22.5522847 2,22 L2,2 Z" id="Shape" fill="#428DFF" fill-rule="nonzero"></path>
            <path d="M0,26 C0.0038803852,26.2647269 0.107434956,26.518257 0.29,26.71 L0.44,26.83 C0.495727127,26.8678773 0.556261922,26.8981446 0.62,26.92 C0.676662423,26.9488877 0.737337452,26.9691127 0.8,26.98 C0.86614452,26.9911308 0.932961153,26.9978125 1,27 C1.26472686,26.9961196 1.51825702,26.892565 1.71,26.71 C1.80039684,26.6143929 1.87167695,26.5023813 1.92,26.38 C2.07087658,26.0070263 1.98864806,25.5802212 1.71,25.29 C1.61439291,25.1996032 1.50238132,25.128323 1.38,25.08 C1.25977769,25.028759 1.13067726,25.00158 1,25 C0.735273141,25.0038804 0.481742984,25.107435 0.29,25.29 C0.107434956,25.481743 0.0038803852,25.7352731 0,26 Z" id="Shape" fill="#428DFF" fill-rule="nonzero"></path>
            <path d="M1,34 C1,35.1045695 1.8954305,36 3,36 L39,36 L39,28 C39,26.8954305 39.8954305,26 41,26 L45,26 L45,2 C45,0.8954305 44.1045695,0 43,0 L3,0 C1.8954305,-1.11022302e-16 1,0.8954305 1,2" id="Shape" stroke="#428DFF" stroke-width="2" stroke-linecap="round" stroke-linejoin="round"></path>
            <path d="M30,46 C28,43 28,40 28,36 L18,36 C18,40 18,43 16,46 L30,46 Z" id="Shape" stroke="#428DFF" stroke-width="2" stroke-linecap="round" stroke-linejoin="round"></path>
            <rect id="Rectangle-path" stroke="#428DFF" stroke-width="2" stroke-linecap="round" stroke-linejoin="round" x="13" y="46" width="20" height="4" rx="2"></rect>
            <path d="M1,8 L45,8" id="Shape" stroke="#428DFF" stroke-width="2" stroke-linecap="round" stroke-linejoin="round"></path>
            <path d="M5,12 L7,12" id="Shape" stroke="#428DFF" stroke-width="2" stroke-linecap="round" stroke-linejoin="round"></path>
            <path d="M5,16 L7,16" id="Shape" stroke="#428DFF" stroke-width="2" stroke-linecap="round" stroke-linejoin="round"></path>
            <path d="M5,20 L7,20" id="Shape" stroke="#428DFF" stroke-width="2" stroke-linecap="round" stroke-linejoin="round"></path>
            <path d="M5,24 L7,24" id="Shape" stroke="#428DFF" stroke-width="2" stroke-linecap="round" stroke-linejoin="round"></path>
            <path d="M5,28 L7,28" id="Shape" stroke="#428DFF" stroke-width="2" stroke-linecap="round" stroke-linejoin="round"></path>
            <path d="M5,32 L7,32" id="Shape" stroke="#428DFF" stroke-width="2" stroke-linecap="round" stroke-linejoin="round"></path>
            <path d="M43,31 L45,31" id="Shape" stroke="#428DFF" stroke-width="2" stroke-linecap="round" stroke-linejoin="round"></path>
            <path d="M43,35 L45,35" id="Shape" stroke="#428DFF" stroke-width="2" stroke-linecap="round" stroke-linejoin="round"></path>
            <path d="M43,39 L45,39" id="Shape" stroke="#428DFF" stroke-width="2" stroke-linecap="round" stroke-linejoin="round"></path>
            <path d="M43,43 L45,43" id="Shape" stroke="#428DFF" stroke-width="2" stroke-linecap="round" stroke-linejoin="round"></path>
            <path d="M43,47 L45,47" id="Shape" stroke="#428DFF" stroke-width="2" stroke-linecap="round" stroke-linejoin="round"></path>
            <path d="M52,31 L55,31" id="Shape" stroke="#428DFF" stroke-width="2" stroke-linecap="round" stroke-linejoin="round"></path>
            <path d="M49,35 L55,35" id="Shape" stroke="#428DFF" stroke-width="2" stroke-linecap="round" stroke-linejoin="round"></path>
            <path d="M49,39 L51,39" id="Shape" stroke="#428DFF" stroke-width="2" stroke-linecap="round" stroke-linejoin="round"></path>
            <path d="M49,43 L53,43" id="Shape" stroke="#428DFF" stroke-width="2" stroke-linecap="round" stroke-linejoin="round"></path>
            <path d="M11,12 L28,12" id="Shape" stroke="#428DFF" stroke-width="2" stroke-linecap="round" stroke-linejoin="round"></path>
            <path d="M32,12 L39,12" id="Shape" stroke="#428DFF" stroke-width="2" stroke-linecap="round" stroke-linejoin="round"></path>
            <path d="M11,16 L19,16" id="Shape" stroke="#428DFF" stroke-width="2" stroke-linecap="round" stroke-linejoin="round"></path>
            <path d="M11,20 L24,20" id="Shape" stroke="#428DFF" stroke-width="2" stroke-linecap="round" stroke-linejoin="round"></path>
            <path d="M11,24 L28,24" id="Shape" stroke="#428DFF" stroke-width="2" stroke-linecap="round" stroke-linejoin="round"></path>
            <path d="M33,24 L35,24" id="Shape" stroke="#428DFF" stroke-width="2" stroke-linecap="round" stroke-linejoin="round"></path>
            <polyline id="Shape" stroke="#428DFF" stroke-width="2" stroke-linecap="round" stroke-linejoin="round" points="11 28 13 30 11 32"></polyline>
            <path d="M17,32 L19,32" id="Shape" stroke="#428DFF" stroke-width="2" stroke-linecap="round" stroke-linejoin="round"></path>
            <circle id="Oval" fill="#428DFF" fill-rule="nonzero" cx="5" cy="4" r="1"></circle>
            <circle id="Oval" fill="#428DFF" fill-rule="nonzero" cx="9" cy="4" r="1"></circle>
            <circle id="Oval" fill="#428DFF" fill-rule="nonzero" cx="13" cy="4" r="1"></circle>
        </g>
    </g>
</svg>